# xmcd CD database file
#
# Track frame offsets:
#	150
#	12197
#	23401
#	38559
#	57188
#	71146
#	92814
#	105948
#	130437
#	143454
#	155626
#	163702
#
# Disc length: 2293 seconds
#
# Revision: 0
# Processed by: cddbd v1.5.2PL0 Copyright (c) Steve Scherf et al.
# Submitted via: CDex 1.70beta3
#
DISCID=9008f30c
DTITLE=The Afro Soul-Tet - Afrodesia
DYEAR=1971
DGENRE=Jazz
TTITLE0=Afrodesia
TTITLE1=Mozamba
TTITLE2=Soul Rockin'
TTITLE3=Afro Revolt
TTITLE4=Drumbouie
TTITLE5=Torrid Zone
TTITLE6=Oom Gowa
TTITLE7=Slave Traders
TTITLE8=Aphro Bugaloo
TTITLE9=Chocolate Drop
TTITLE10=Le Berber
TTITLE11=Sand, Sun And Sea
EXTD=YEAR: 1971
EXTT0=
EXTT1=
EXTT2=
EXTT3=
EXTT4=
EXTT5=
EXTT6=
EXTT7=
EXTT8=
EXTT9=
EXTT10=
EXTT11=
PLAYORDER=
